Coordinates
version=1
nRows=11
nColumns=40
inDegrees=yes

Units are S.I. units (second, meters, Newtons, ...)
Angles are in degrees.

endheader
time	pelvis_tilt	pelvis_list	pelvis_rotation	pelvis_tx	pelvis_ty	pelvis_tz	hip_flexion_r	hip_adduction_r	hip_rotation_r	knee_angle_r	knee_angle_r_beta	ankle_angle_r	subtalar_angle_r	mtp_angle_r	hip_flexion_l	hip_adduction_l	hip_rotation_l	knee_angle_l	knee_angle_l_beta	ankle_angle_l	subtalar_angle_l	mtp_angle_l	lumbar_extension	lumbar_bending	lumbar_rotation	arm_flex_r	arm_add_r	arm_rot_r	elbow_flex_r	pro_sup_r	wrist_flex_r	wrist_dev_r	arm_flex_l	arm_add_l	arm_rot_l	elbow_flex_l	pro_sup_l	wrist_flex_l	wrist_dev_l
     49.74250000	     -6.71648498	     -4.51428252	      1.98764542	      0.85750836	      0.92252348	      0.44940895	      1.69574459	     -1.80854985	    -16.12123647	     24.18519872	     24.18519872	     13.78662846	     -2.31198622	     -8.64446160	     27.24602295	     -4.21246223	      0.97883041	     25.92806580	     25.92806580	      8.54759472	    -12.21924148	      5.32051905	     -8.12533590	      4.92463980	      2.92304454	     30.48341017	    -15.04274847	     -2.98923777	     96.29454420	     44.75967929	      0.00000000	      0.00000000	     -7.85656532	     -6.86169248	     -3.37205853	     31.99560614	     44.88127698	      0.00000000	      0.00000000
     49.75571429	     -6.68504442	     -4.51746475	      1.77180694	      0.85833410	      0.92312228	      0.44658054	      2.55615560	     -2.29632754	    -15.35824981	     26.50545604	     26.50545604	     11.82562698	     -4.50011083	    -12.22306819	     26.71084449	     -4.14915597	      0.72991631	     26.08490227	     26.08490227	      9.25063441	    -12.02409261	      5.69556867	     -8.08577246	      4.92765575	      2.45968472	     29.56232214	    -14.36503010	     -2.88166028	     93.01497825	     44.88596520	      0.00000000	      0.00000000	     -8.04705305	     -7.13502904	     -3.21667267	     34.09064671	     44.93779539	      0.00000000	      0.00000000
     49.76892857	     -6.64919373	     -4.46343045	      1.51602865	      0.85905669	      0.92363984	      0.44376920	      3.72291796	     -2.96759822	    -14.76357360	     29.49340258	     29.49340258	     10.87175493	     -5.82957290	    -12.76702173	     26.09799233	     -4.05271794	      0.33970037	     26.09912671	     26.09912671	      9.71426585	    -11.85179434	      5.50321249	     -8.10555932	      4.88278826	      2.68252592	     27.86439129	    -14.56287282	     -2.86871570	     91.22250690	     44.93994715	      0.00000000	      0.00000000	     -7.29940207	     -7.29117360	     -3.26547064	     34.81905913	     44.96860546	      0.00000000	      0.00000000
     49.78214286	     -6.57798365	     -4.39923930	      1.25376676	      0.85965816	      0.92407055	      0.44109697	      5.01741037	     -3.61846258	    -14.03979391	     32.68664872	     32.68664872	      9.73861649	     -7.35350895	    -13.20233412	     25.46411923	     -3.96498750	     -0.08020607	     26.14121707	     26.14121707	     10.23546905	    -11.57019622	      5.25664965	     -8.19270197	      4.79644285	      2.79287274	     26.18357454	    -14.53764798	     -2.91982873	     89.18944670	     45.00240690	      0.00000000	      0.00000000	     -6.57743650	     -7.51390903	     -3.30116764	     35.66092013	     44.99452663	      0.00000000	      0.00000000
     49.79535714	     -6.51326635	     -4.31180781	      1.02546663	      0.86002822	      0.92439181	      0.43851828	      6.48502270	     -4.25309477	    -13.27144597	     36.06382668	     36.06382668	      8.46823597	     -9.07058054	    -13.42674452	     24.88227120	     -3.87490739	     -0.63625590	     26.21988765	     26.21988765	     10.70876519	    -11.20157243	      4.99580363	     -8.24785554	      4.70481656	      2.86473463	     24.48011998	    -14.45943041	     -2.99253871	     86.94463778	     45.07160693	      0.00000000	      0.00000000	     -5.81587220	     -7.78686263	     -3.33052861	     36.60554862	     45.01910731	      0.00000000	      0.00000000
     49.80857143	     -6.54155451	     -4.30738773	      0.75665863	      0.86018234	      0.92453612	      0.43616498	      8.17907508	     -4.70128914	    -12.34999706	     39.48352737	     39.48352737	      7.08796607	    -10.97682715	    -13.31181165	     24.37760511	     -3.89752682	     -1.15128952	     26.23012565	     26.23012565	     11.27146622	    -10.65164912	      4.68083260	     -8.19441805	      4.68794907	      2.93076985	     22.87468108	    -14.38166773	     -3.18287465	     84.20660830	     45.16092273	      0.00000000	      0.00000000	     -5.13251152	     -8.09931642	     -3.32301114	     37.74012131	     45.04085923	      0.00000000	      0.00000000
     49.82178571	     -6.30639242	     -4.29991672	      0.63658435	      0.86031664	      0.92497859	      0.43375541	      9.55581984	     -5.19840301	    -11.81981379	     42.78884668	     42.78884668	      5.86411202	    -12.35693441	    -13.05705831	     23.61475930	     -3.85340545	     -1.48730778	     26.26527317	     26.26527317	     11.81654368	    -10.21793845	      4.39374888	     -8.48210180	      4.72375107	      2.75058894	     21.09530265	    -14.09508775	     -3.10250513	     82.16838650	     45.21715230	      0.00000000	      0.00000000	     -4.22762666	     -8.43271786	     -3.33882935	     38.59310742	     45.06313149	      0.00000000	      0.00000000
     49.83500000	     -6.39378722	     -4.39269555	      0.36253358	      0.85998046	      0.92510774	      0.43199026	     11.55567720	     -5.30228337	    -10.74826871	     46.28356383	     46.28356383	      5.27095712	    -13.97835891	     -9.95318734	     23.24364437	     -4.15017456	     -2.48925065	     26.34601298	     26.34601298	     12.48008011	     -8.88819335	      4.01392808	     -8.27975896	      4.74958527	      1.97141245	     20.97715382	    -12.92535082	     -3.67398017	     75.61952533	     45.44523597	      0.00000000	      0.00000000	     -4.49869379	     -9.20749897	     -2.72621360	     41.20856836	     45.05670162	      0.00000000	      0.00000000
     49.84821429	     -6.38267021	     -4.26198466	      0.16601352	      0.85956822	      0.92534767	      0.42996811	     13.35264230	     -5.83340147	    -10.18987428	     49.45124934	     49.45124934	      4.26626465	    -15.03441890	     -9.27845508	     22.64522886	     -3.99400099	     -2.93387852	     26.17654507	     26.17654507	     12.88689734	     -8.55547842	      3.84012950	     -8.37037506	      4.60959051	      2.06651703	     18.95884284	    -13.17208595	     -3.37483520	     73.71470623	     45.48791027	      0.00000000	      0.00000000	     -3.41524058	     -9.58322121	     -2.85135449	     41.97624341	     45.09776017	      0.00000000	      0.00000000
     49.86142857	     -6.36508192	     -4.18211196	     -0.02026041	      0.85898373	      0.92575452	      0.42820654	     15.10999312	     -6.21023712	     -9.64909572	     52.30459848	     52.30459848	      3.48599791	    -15.98665077	     -8.21564991	     22.04747651	     -3.93312371	     -3.46508129	     25.98679799	     25.98679799	     13.24929329	     -8.03193867	      3.62294469	     -8.47652736	      4.52377048	      2.18594395	     16.97869174	    -13.38221523	     -3.20054418	     71.23914858	     45.55381025	      0.00000000	      0.00000000	     -2.20523933	     -9.97189169	     -2.92776494	     42.73157279	     45.13455514	      0.00000000	      0.00000000
     49.87464286	     -6.29268431	     -4.33116011	     -0.16044146	      0.85827437	      0.92637445	      0.42680312	     16.93289576	     -6.23428398	     -9.15676725	     55.24877858	     55.24877858	      5.04349073	    -15.54978013	     -1.09553888	     21.40678471	     -4.15990433	     -3.99752803	     25.80584725	     25.80584725	     13.74172271	     -7.16572320	      3.27049904	     -8.52468607	      4.62813353	      1.45438772	     16.70799470	    -12.79936086	     -2.71812824	     65.06929490	     45.70202038	      0.00000000	      0.00000000	     -1.63702265	    -10.62352453	     -2.68074160	     43.95374474	     45.25941369	      0.00000000	      0.00000000
